<?xml version="1.0" standalone="no"?>
<!DOCTYPE svg PUBLIC "-//W3C//DTD SVG 1.1//EN" 
  "http://www.w3.org/Graphics/SVG/1.1/DTD/svg11.dtd">
<svg width="17cm" height="6cm" viewBox="0 0 1700 600"
     xmlns="http://www.w3.org/2000/svg" version="1.1">


  <path d="M1200,600 a600,600 0 0,0 -1200,0 z"
        fill="none" stroke="blue" stroke-width="1" />

  <path d="M600,600 L600,0" stroke="red" stroke-width="1"/>

  <path d="M600,600 L600,0" stroke="red" stroke-width="1" transform="rotate(9.32 600 600)"/>
  <path d="M600,600 L600,0" stroke="red" stroke-width="1" transform="rotate(-9.32 600 600)"/>

  <path d="M600,600 L600,0" stroke="red" stroke-width="1" transform="rotate(19.48 600 600)"/>
  <path d="M600,600 L600,0" stroke="red" stroke-width="1" transform="rotate(-19.48 600 600)"/>

  <path d="M600,600 L600,0" stroke="red" stroke-width="1" transform="rotate(31.49 600 600)"/>
  <path d="M600,600 L600,0" stroke="red" stroke-width="1" transform="rotate(-31.49 600 600)"/>

  <path d="M600,600 L600,0" stroke="red" stroke-width="1" transform="rotate(46.69 600 600)"/>
  <path d="M600,600 L600,0" stroke="red" stroke-width="1" transform="rotate(-46.69 600 600)"/>

 <path d="M600,600 L600,0" stroke="red" stroke-width="1" transform="rotate(66.37 600 600)"/>
  <path d="M600,600 L600,0" stroke="red" stroke-width="1" transform="rotate(-66.37 600 600)"/>

  <path d="M 1300,600 L1300,0 L1667.5365,600 L1300,600" stroke="blue" fill="none" stroke-width="1"/>
</svg>