<?xml version="1.0" standalone="no"?>
<!DOCTYPE svg PUBLIC "-//W3C//DTD SVG 1.1//EN" 
  "http://www.w3.org/Graphics/SVG/1.1/DTD/svg11.dtd">
<svg width="17.0cm" height="6.0cm" viewBox="0 0 1700 600"
     xmlns="http://www.w3.org/2000/svg" version="1.1"><path d="M1200,600 a600,600 0 0,0 -1200,0 z"
        fill="none" stroke="blue" stroke-width="1" />

  <path d="M 584.125,540 L615.875,540 L615.875,440 L584.125,440 L584.125,540" stroke="blue" fill="none" stroke-width="1"/>
  <path d="M 1100,260 L1100,160 L1068.25,160 L1068.25,60 L1100,60 L1100,0 L1569.61313048,600 L1100,260" stroke="blue" fill="none" stroke-width="1"/>
  <path d="M600,400 L600,80" stroke="red" stroke-width="1" transform="rotate(-90.000000 600 600)"/>
<path fill='red' transform='rotate(0.5) translate(600 0) rotate(-90.000000 0 600)' d='m10.6875 21.486248l9.640625 0l0 1.90625l-3.546875 0q2.875 6.921875 5.78125 13.734375q2.90625 6.8125 5.828125 13.6875l0.4375 1.34375l0.421875 -1.34375q2.890625 -6.875 5.78125 -13.6875q2.90625 -6.8125 5.796875 -13.734375l-3.3125 0l0 -1.90625l9.640625 0l0 1.90625l-4.265625 0q-3.5 8.359375 -7.03125 16.625q-3.53125 8.25 -7.03125 16.59375q-3.5625 -8.34375 -7.09375 -16.59375q-3.515625 -8.265625 -7.015625 -16.625l-4.03125 0l0 -1.90625zm39.840088 31.671875l3.734375 0l0 -29.765625l-3.734375 0l0 -1.90625l9.640625 0l0 1.90625l-3.9375 0l0 29.765625l3.9375 0l0 1.921875l-9.640625 0l0 -1.921875z' fill-rule='nonzero'/>
  <path d="M600,400 L600,80" stroke="red" stroke-width="1" transform="rotate(-71.101638 600 600)"/>
<path fill='red' transform='rotate(0.5) translate(600 0) rotate(-75.101638 0 600)' d='m10.6875 21.486248l9.640625 0l0 1.90625l-3.546875 0q2.875 6.921875 5.78125 13.734375q2.90625 6.8125 5.828125 13.6875l0.4375 1.34375l0.421875 -1.34375q2.890625 -6.875 5.78125 -13.6875q2.90625 -6.8125 5.796875 -13.734375l-3.3125 0l0 -1.90625l9.640625 0l0 1.90625l-4.265625 0q-3.5 8.359375 -7.03125 16.625q-3.53125 8.25 -7.03125 16.59375q-3.5625 -8.34375 -7.09375 -16.59375q-3.515625 -8.265625 -7.015625 -16.625l-4.03125 0l0 -1.90625zm39.840088 31.671875l3.734375 0l0 -29.765625l-3.734375 0l0 -1.90625l9.640625 0l0 1.90625l-3.9375 0l0 29.765625l3.9375 0l0 1.921875l-9.640625 0l0 -1.921875zm13.008026 0l3.734375 0l0 -29.765625l-3.734375 0l0 -1.90625l9.640625 0l0 1.90625l-3.9375 0l0 29.765625l3.9375 0l0 1.921875l-9.640625 0l0 -1.921875z' fill-rule='nonzero'/>
  <path d="M600,400 L600,80" stroke="red" stroke-width="1" transform="rotate(-53.585656 600 600)"/>
<path fill='red' transform='rotate(0.5) translate(600 0) rotate(-58.585656 0 600)' d='m10.6875 21.486248l9.640625 0l0 1.90625l-3.546875 0q2.875 6.921875 5.78125 13.734375q2.90625 6.8125 5.828125 13.6875l0.4375 1.34375l0.421875 -1.34375q2.890625 -6.875 5.78125 -13.6875q2.90625 -6.8125 5.796875 -13.734375l-3.3125 0l0 -1.90625l9.640625 0l0 1.90625l-4.265625 0q-3.5 8.359375 -7.03125 16.625q-3.53125 8.25 -7.03125 16.59375q-3.5625 -8.34375 -7.09375 -16.59375q-3.515625 -8.265625 -7.015625 -16.625l-4.03125 0l0 -1.90625zm39.840088 31.671875l3.734375 0l0 -29.765625l-3.734375 0l0 -1.90625l9.640625 0l0 1.90625l-3.9375 0l0 29.765625l3.9375 0l0 1.921875l-9.640625 0l0 -1.921875zm13.008026 0l3.734375 0l0 -29.765625l-3.734375 0l0 -1.90625l9.640625 0l0 1.90625l-3.9375 0l0 29.765625l3.9375 0l0 1.921875l-9.640625 0l0 -1.921875zm13.008026 0l3.734375 0l0 -29.765625l-3.734375 0l0 -1.90625l9.640625 0l0 1.90625l-3.9375 0l0 29.765625l3.9375 0l0 1.921875l-9.640625 0l0 -1.921875z' fill-rule='nonzero'/>
  <path d="M600,400 L600,80" stroke="red" stroke-width="1" transform="rotate(-38.049880 600 600)"/>
<path fill='red' transform='rotate(0.5) translate(600 0) rotate(-40.749880 0 600)' d='m10.6875 53.158123l3.734375 0l0 -29.765625l-3.734375 0l0 -1.90625l9.640625 0l0 1.90625l-3.9375 0l0 29.765625l3.9375 0l0 1.921875l-9.640625 0l0 -1.921875zm13.008026 -31.671875l9.640625 0l0 1.90625l-2.734375 0q2.015625 3.03125 3.953125 6.0625q1.953125 3.015625 3.921875 6.046875l0.46875 0.859375l0.484375 -0.859375l7.78125 -12.109375l-2.78125 0l0 -1.90625l9.6875 0l0 1.90625l-4.515625 0q-2.34375 3.75 -4.703125 7.375q-2.34375 3.625 -4.75 7.328125q2.453125 3.78125 4.921875 7.53125q2.46875 3.734375 4.921875 7.53125l4.125 0l0 1.921875l-9.6875 0l0 -1.921875l3.0625 0l-7.203125 -11.09375q-0.375 -0.5625 -0.765625 -1.234375q-0.375 -0.671875 -0.765625 -1.25l-0.484375 0.90625q-2.0625 3.21875 -4.109375 6.359375q-2.03125 3.140625 -4.046875 6.3125l3.21875 0l0 1.921875l-9.640625 0l0 -1.921875l3.96875 0l9.890625 -15.3125l-9.40625 -14.453125l-4.453125 0l0 -1.90625z' fill-rule='nonzero'/>
  <path d="M600,400 L600,80" stroke="red" stroke-width="1" transform="rotate(-24.317518 600 600)"/>
<path fill='red' transform='rotate(0.5) translate(600 0) rotate(-26.417518 0 600)' d='m10.6875 21.486248l9.640625 0l0 1.90625l-2.734375 0q2.015625 3.03125 3.953125 6.0625q1.953125 3.015625 3.921875 6.046875l0.46875 0.859375l0.484375 -0.859375l7.78125 -12.109375l-2.78125 0l0 -1.90625l9.6875 0l0 1.90625l-4.515625 0q-2.34375 3.75 -4.703125 7.375q-2.34375 3.625 -4.75 7.328125q2.453125 3.78125 4.921875 7.53125q2.46875 3.734375 4.921875 7.53125l4.125 0l0 1.921875l-9.6875 0l0 -1.921875l3.0625 0l-7.203125 -11.09375q-0.375 -0.5625 -0.765625 -1.234375q-0.375 -0.671875 -0.765625 -1.25l-0.484375 0.90625q-2.0625 3.21875 -4.109375 6.359375q-2.03125 3.140625 -4.046875 6.3125l3.21875 0l0 1.921875l-9.640625 0l0 -1.921875l3.96875 0l9.890625 -15.3125l-9.40625 -14.453125l-4.453125 0l0 -1.90625z' fill-rule='nonzero'/>
  <path d="M600,400 L600,80" stroke="red" stroke-width="1" transform="rotate(-11.844455 600 600)"/>
<path fill='red' transform='rotate(0.5) translate(600 0) rotate(-15.044455 0 600)' d='m10.6875 21.486248l9.640625 0l0 1.90625l-2.734375 0q2.015625 3.03125 3.953125 6.0625q1.953125 3.015625 3.921875 6.046875l0.46875 0.859375l0.484375 -0.859375l7.78125 -12.109375l-2.78125 0l0 -1.90625l9.6875 0l0 1.90625l-4.515625 0q-2.34375 3.75 -4.703125 7.375q-2.34375 3.625 -4.75 7.328125q2.453125 3.78125 4.921875 7.53125q2.46875 3.734375 4.921875 7.53125l4.125 0l0 1.921875l-9.6875 0l0 -1.921875l3.0625 0l-7.203125 -11.09375q-0.375 -0.5625 -0.765625 -1.234375q-0.375 -0.671875 -0.765625 -1.25l-0.484375 0.90625q-2.0625 3.21875 -4.109375 6.359375q-2.03125 3.140625 -4.046875 6.3125l3.21875 0l0 1.921875l-9.640625 0l0 -1.921875l3.96875 0l9.890625 -15.3125l-9.40625 -14.453125l-4.453125 0l0 -1.90625zm33.79207 31.671875l3.734375 0l0 -29.765625l-3.734375 0l0 -1.90625l9.640625 0l0 1.90625l-3.9375 0l0 29.765625l3.9375 0l0 1.921875l-9.640625 0l0 -1.921875z' fill-rule='nonzero'/>
  <path d="M600,400 L600,80" stroke="red" stroke-width="1" transform="rotate(0.000000 600 600)"/>
<path fill='red' transform='rotate(0.5) translate(600 0) rotate(-2.800000 0 600)' d='m10.6875 38.329998q0 -3.546875 1.34375 -6.6875q1.34375 -3.15625 3.671875 -5.484375q2.328125 -2.328125 5.4375 -3.6875q3.125 -1.375 6.671875 -1.375q3.5625 0 6.703125 1.375q3.140625 1.359375 5.46875 3.6875q2.328125 2.328125 3.6875 5.484375q1.375 3.140625 1.375 6.6875q0 3.546875 -1.375 6.671875q-1.359375 3.125 -3.6875 5.453125q-2.328125 2.328125 -5.46875 3.671875q-3.140625 1.34375 -6.703125 1.34375q-3.546875 0 -6.671875 -1.34375q-3.109375 -1.34375 -5.4375 -3.671875q-2.328125 -2.328125 -3.671875 -5.453125q-1.34375 -3.125 -1.34375 -6.671875zm2.015625 0.046875q0 3.171875 1.171875 5.9375q1.171875 2.75 3.234375 4.796875q2.0625 2.03125 4.796875 3.234375q2.734375 1.203125 5.859375 1.203125q3.125 0 5.90625 -1.203125q2.78125 -1.203125 4.859375 -3.265625q2.09375 -2.0625 3.296875 -4.8125q1.203125 -2.765625 1.203125 -5.9375q0 -3.171875 -1.203125 -5.953125q-1.203125 -2.78125 -3.265625 -4.859375q-2.0625 -2.09375 -4.84375 -3.296875q-2.78125 -1.203125 -5.90625 -1.203125q-3.109375 0 -5.875 1.234375q-2.765625 1.21875 -4.828125 3.3125q-2.0625 2.078125 -3.234375 4.859375q-1.171875 2.78125 -1.171875 5.953125z' fill-rule='nonzero'/>
  <path d="M600,400 L600,80" stroke="red" stroke-width="1" transform="rotate(11.844455 600 600)"/>
<path fill='red' transform='rotate(0.5) translate(600 0) rotate(10.144455 0 600)' d='m10.6875 53.158123l3.734375 0l0 -29.765625l-3.734375 0l0 -1.90625l9.640625 0l0 1.90625l-3.9375 0l0 29.765625l3.9375 0l0 1.921875l-9.640625 0l0 -1.921875z' fill-rule='nonzero'/>
  <path d="M600,400 L600,80" stroke="red" stroke-width="1" transform="rotate(24.317518 600 600)"/>
<path fill='red' transform='rotate(0.5) translate(600 0) rotate(21.817518 0 600)' d='m10.6875 53.158123l3.734375 0l0 -29.765625l-3.734375 0l0 -1.90625l9.640625 0l0 1.90625l-3.9375 0l0 29.765625l3.9375 0l0 1.921875l-9.640625 0l0 -1.921875zm13.008026 0l3.734375 0l0 -29.765625l-3.734375 0l0 -1.90625l9.640625 0l0 1.90625l-3.9375 0l0 29.765625l3.9375 0l0 1.921875l-9.640625 0l0 -1.921875z' fill-rule='nonzero'/>
  <path d="M600,400 L600,80" stroke="red" stroke-width="1" transform="rotate(38.049880 600 600)"/>
<path fill='red' transform='rotate(0.5) translate(600 0) rotate(34.949880 0 600)' d='m10.6875 53.158123l3.734375 0l0 -29.765625l-3.734375 0l0 -1.90625l9.640625 0l0 1.90625l-3.9375 0l0 29.765625l3.9375 0l0 1.921875l-9.640625 0l0 -1.921875zm13.008026 0l3.734375 0l0 -29.765625l-3.734375 0l0 -1.90625l9.640625 0l0 1.90625l-3.9375 0l0 29.765625l3.9375 0l0 1.921875l-9.640625 0l0 -1.921875zm13.008026 0l3.734375 0l0 -29.765625l-3.734375 0l0 -1.90625l9.640625 0l0 1.90625l-3.9375 0l0 29.765625l3.9375 0l0 1.921875l-9.640625 0l0 -1.921875z' fill-rule='nonzero'/>
  <path d="M600,400 L600,80" stroke="red" stroke-width="1" transform="rotate(53.585656 600 600)"/>
<path fill='red' transform='rotate(0.5) translate(600 0) rotate(50.185656 0 600)' d='m10.6875 53.158123l3.734375 0l0 -29.765625l-3.734375 0l0 -1.90625l9.640625 0l0 1.90625l-3.9375 0l0 29.765625l3.9375 0l0 1.921875l-9.640625 0l0 -1.921875zm13.008026 -31.671875l9.640625 0l0 1.90625l-3.546875 0q2.875 6.921875 5.78125 13.734375q2.90625 6.8125 5.828125 13.6875l0.4375 1.34375l0.421875 -1.34375q2.890625 -6.875 5.78125 -13.6875q2.90625 -6.8125 5.796875 -13.734375l-3.3125 0l0 -1.90625l9.640625 0l0 1.90625l-4.265625 0q-3.5 8.359375 -7.03125 16.625q-3.53125 8.25 -7.03125 16.59375q-3.5625 -8.34375 -7.09375 -16.59375q-3.515625 -8.265625 -7.015625 -16.625l-4.03125 0l0 -1.90625z' fill-rule='nonzero'/>
  <path d="M600,400 L600,80" stroke="red" stroke-width="1" transform="rotate(71.101638 600 600)"/>
<path fill='red' transform='rotate(0.5) translate(600 0) rotate(67.601638 0 600)' d='m10.6875 21.486248l9.640625 0l0 1.90625l-3.546875 0q2.875 6.921875 5.78125 13.734375q2.90625 6.8125 5.828125 13.6875l0.4375 1.34375l0.421875 -1.34375q2.890625 -6.875 5.78125 -13.6875q2.90625 -6.8125 5.796875 -13.734375l-3.3125 0l0 -1.90625l9.640625 0l0 1.90625l-4.265625 0q-3.5 8.359375 -7.03125 16.625q-3.53125 8.25 -7.03125 16.59375q-3.5625 -8.34375 -7.09375 -16.59375q-3.515625 -8.265625 -7.015625 -16.625l-4.03125 0l0 -1.90625z' fill-rule='nonzero'/>
  <path d="M600,100 L600,70" stroke="red" stroke-width="1" transform="rotate(-85.213138 600 600)"/>

  <path d="M600,100 L600,70" stroke="red" stroke-width="1" transform="rotate(-80.451915 600 600)"/>

  <path d="M600,100 L600,70" stroke="red" stroke-width="1" transform="rotate(-75.740731 600 600)"/>

  <path d="M600,100 L600,70" stroke="red" stroke-width="1" transform="rotate(-66.553485 600 600)"/>

  <path d="M600,100 L600,70" stroke="red" stroke-width="1" transform="rotate(-62.111362 600 600)"/>

  <path d="M600,100 L600,70" stroke="red" stroke-width="1" transform="rotate(-57.786366 600 600)"/>

  <path d="M600,100 L600,70" stroke="red" stroke-width="1" transform="rotate(-49.512723 600 600)"/>

  <path d="M600,100 L600,70" stroke="red" stroke-width="1" transform="rotate(-45.567816 600 600)"/>

  <path d="M600,100 L600,70" stroke="red" stroke-width="1" transform="rotate(-41.748441 600 600)"/>

  <path d="M600,100 L600,70" stroke="red" stroke-width="1" transform="rotate(-34.465682 600 600)"/>

  <path d="M600,100 L600,70" stroke="red" stroke-width="1" transform="rotate(-30.988103 600 600)"/>

  <path d="M600,100 L600,70" stroke="red" stroke-width="1" transform="rotate(-27.608477 600 600)"/>

  <path d="M600,100 L600,70" stroke="red" stroke-width="1" transform="rotate(-21.105555 600 600)"/>

  <path d="M600,100 L600,70" stroke="red" stroke-width="1" transform="rotate(-17.962705 600 600)"/>

  <path d="M600,100 L600,70" stroke="red" stroke-width="1" transform="rotate(-14.878998 600 600)"/>

  <path d="M600,100 L600,70" stroke="red" stroke-width="1" transform="rotate(-8.849136 600 600)"/>

  <path d="M600,100 L600,70" stroke="red" stroke-width="1" transform="rotate(-5.883160 600 600)"/>

  <path d="M600,100 L600,70" stroke="red" stroke-width="1" transform="rotate(-2.936706 600 600)"/>

  <path d="M600,100 L600,70" stroke="red" stroke-width="1" transform="rotate(2.936706 600 600)"/>

  <path d="M600,100 L600,70" stroke="red" stroke-width="1" transform="rotate(5.883160 600 600)"/>

  <path d="M600,100 L600,70" stroke="red" stroke-width="1" transform="rotate(8.849136 600 600)"/>

  <path d="M600,100 L600,70" stroke="red" stroke-width="1" transform="rotate(14.878998 600 600)"/>

  <path d="M600,100 L600,70" stroke="red" stroke-width="1" transform="rotate(17.962705 600 600)"/>

  <path d="M600,100 L600,70" stroke="red" stroke-width="1" transform="rotate(21.105555 600 600)"/>

  <path d="M600,100 L600,70" stroke="red" stroke-width="1" transform="rotate(27.608477 600 600)"/>

  <path d="M600,100 L600,70" stroke="red" stroke-width="1" transform="rotate(30.988103 600 600)"/>

  <path d="M600,100 L600,70" stroke="red" stroke-width="1" transform="rotate(34.465682 600 600)"/>

  <path d="M600,100 L600,70" stroke="red" stroke-width="1" transform="rotate(41.748441 600 600)"/>

  <path d="M600,100 L600,70" stroke="red" stroke-width="1" transform="rotate(45.567816 600 600)"/>

  <path d="M600,100 L600,70" stroke="red" stroke-width="1" transform="rotate(49.512723 600 600)"/>

  <path d="M600,100 L600,70" stroke="red" stroke-width="1" transform="rotate(57.786366 600 600)"/>

  <path d="M600,100 L600,70" stroke="red" stroke-width="1" transform="rotate(62.111362 600 600)"/>

  <path d="M600,100 L600,70" stroke="red" stroke-width="1" transform="rotate(66.553485 600 600)"/>

  <path d="M600,100 L600,70" stroke="red" stroke-width="1" transform="rotate(75.740731 600 600)"/>

  <path d="M600,100 L600,70" stroke="red" stroke-width="1" transform="rotate(80.451915 600 600)"/>

  <path d="M600,100 L600,70" stroke="red" stroke-width="1" transform="rotate(85.213138 600 600)"/>
</svg>
